<svg width="2491" height="609" viewBox="0 0 2491 609" fill="none" xmlns="http://www.w3.org/2000/svg">
<rect x="1970" width="521" height="206" rx="103" fill="#0057FF"/>
<path d="M2090.42 160V53.5H2128.07C2151.17 53.5 2166.17 67.9 2166.17 89.65C2166.17 111.4 2151.17 125.8 2128.07 125.8H2110.97V160H2090.42ZM2110.97 106.9H2126.27C2137.37 106.9 2145.32 102.1 2145.32 89.65C2145.32 77.35 2137.37 72.4 2126.27 72.4H2110.97V106.9ZM2236.81 160L2214.91 124.75H2199.01V160H2178.46V53.5H2215.81C2238.46 53.5 2253.46 67.9 2253.46 89.65C2253.46 104.95 2246.11 116.05 2233.81 121.3L2258.71 160H2236.81ZM2199.01 106.9H2213.71C2224.96 106.9 2232.61 102.1 2232.61 89.65C2232.61 77.35 2224.96 72.4 2213.71 72.4H2199.01V106.9ZM2317.4 161.5C2287.7 161.5 2262.65 139.45 2262.65 106.75C2262.65 74.05 2287.7 52 2317.4 52C2347.1 52 2372.3 74.05 2372.3 106.75C2372.3 139.45 2347.1 161.5 2317.4 161.5ZM2283.65 106.75C2283.65 128.2 2299.25 142 2317.4 142C2335.7 142 2351.15 128.2 2351.15 106.75C2351.15 85.3 2335.7 71.5 2317.4 71.5C2299.25 71.5 2283.65 85.3 2283.65 106.75Z" fill="white"/>
<path d="M209.474 0.24571C237.166 -1.2845 264.785 4.35202 289.663 16.6109V115.711C275.2 109.569 259.536 106.772 243.841 107.528C235.657 106.566 227.361 107.469 219.576 110.172C211.792 112.874 204.72 117.305 198.894 123.132C193.067 128.959 188.636 136.03 185.933 143.815C183.231 151.6 182.327 159.896 183.29 168.08V174.626H289.663V275.18H183.29V600.12H56.0052V275.18H0V174.626H56.5507V154.987C56.5507 20.7931 150.559 0.24571 209.474 0.24571Z" fill="white"/>
<path d="M342.033 19.1582H469.318V601.031H342.033V19.1582Z" fill="white"/>
<path d="M545.506 19.1582H672.79V129.532H545.506V19.1582ZM545.506 174.627H672.79V600.121H545.506V174.627Z" fill="white"/>
<path d="M878.809 381.551L733.341 174.623H876.445L951.725 289.906L1027 174.623H1170.29L1024.82 381.551L1186.84 599.754H1041.37L950.452 473.742L861.534 600.117H716.066L878.809 381.551Z" fill="white"/>
<path d="M1170.11 388.098C1170.11 244.085 1277.21 166.441 1386.86 166.441C1496.5 166.441 1621.79 241.721 1594.69 436.467H1291.94C1309.21 482.289 1351.76 505.564 1408.13 505.564C1444.99 506.649 1481.11 495.101 1510.5 472.834L1567.78 532.475C1546.45 557.397 1519.78 577.189 1489.75 590.38C1459.71 603.571 1427.09 609.821 1394.31 608.664C1276.48 608.301 1170.11 528.111 1170.11 388.098ZM1483.41 345.549C1479.06 323.998 1467.04 304.754 1449.59 291.381C1432.14 278.008 1410.43 271.412 1388.49 272.815C1366.16 271.756 1344.15 278.405 1326.14 291.648C1308.13 304.89 1295.22 323.92 1289.58 345.549H1483.41Z" fill="white"/>
<path d="M1654.7 174.621H1781.99V289.904C1795.81 221.171 1836.54 166.438 1913.63 166.438C1923.9 166.213 1934.14 167.562 1944 170.439V290.813C1934.27 289.123 1924.42 288.271 1914.54 288.268C1830.17 288.268 1781.99 344.818 1781.99 425.008V600.115H1654.7V174.621Z" fill="white"/>
</svg>
